<?xml version="1.0" standalone="yes"?>
<svg xmlns="http://www.w3.org/2000/svg" width="1234" height="1024">
<path style="fill:#ffffff; stroke:none;" d="M0 0L0 342C34.0647 324.077 67.3858 304.613 101 285.86C168.631 248.131 236.378 210.607 304 172.86C374.619 133.441 445.381 94.2795 516 54.8604C548.271 36.8466 581.092 19.6413 613 1C608.031 -1.08508 601.35 0 596 0L560 0L434 0L0 0z"/>
<path style="fill:#000000; stroke:none;" d="M0 512C16.6889 505.927 32.5 494.512 48 485.86C80.6407 467.64 113.236 449.301 146 431.306C247.637 375.481 348.733 318.634 450 262.14C490.306 239.654 530.454 216.818 571 194.769C581.376 189.127 591.717 183.386 602 177.576C605.815 175.42 611.443 170.811 616 171.067C620.579 171.324 626.091 175.778 630 178C639.296 183.283 648.629 188.547 658 193.694C693.443 213.162 728.557 233.229 764 252.694C871.655 311.818 978.74 372.023 1086 431.86L1183 485.86C1192.66 491.249 1202.38 496.535 1212 502C1218.28 505.569 1224.93 510.381 1232 512L1232 389L1232 356C1232 352.146 1233.17 345.91 1230.97 342.529C1228.63 338.925 1222.62 336.916 1219 334.85C1209.39 329.367 1199.7 324.021 1190 318.694C1154.56 299.229 1119.44 279.16 1084 259.694C971.652 197.994 860.348 134.395 748 72.6945C716.229 55.2465 684.842 37.0844 653 19.7693C644.623 15.214 636.327 10.5058 628 5.86035C624.497 3.90582 620.124 0.533813 616 0.357239C611.234 0.153137 605.97 4.33234 602 6.57562C593.036 11.6401 583.964 16.511 575 21.5756C542.126 40.1495 509.096 58.5187 476 76.6945C360.644 140.047 246.356 205.342 131 268.694C99.2388 286.137 67.5482 303.751 36 321.576C27.7063 326.262 19.2937 330.738 11 335.424C7.81201 337.226 2.96622 338.927 1.02778 342.213C-1.10893 345.835 0 351.953 0 356L0 389L0 512z"/>
<path style="fill:#ffffff; stroke:none;" d="M618 0C622.753 4.45038 629.311 7.18127 635 10.3055C644.357 15.4442 653.679 20.6573 663 25.8604L760 79.8604C864.286 138.038 968.714 195.961 1073 254.14L1188 318.14C1198.33 323.904 1208.73 329.546 1219 335.421C1222.72 337.548 1228.66 339.522 1230.97 343.329C1233.12 346.878 1232 353.012 1232 357L1232 390L1232 512C1215.39 505.954 1199.45 494.477 1184 485.86C1151.35 467.647 1118.77 449.301 1086 431.306C984.044 375.312 882.273 318.796 781 261.576C740.489 238.686 699.783 216.095 659 193.694C648.616 187.991 638.385 182.009 628 176.306C624.326 174.288 619.394 170.246 615 170.632C611.245 170.961 607.223 174.062 604 175.86C597 179.765 589.978 183.633 583 187.576C559.088 201.086 535.073 214.474 511 227.694C422.752 276.159 334.656 325.049 247 374.576C188.208 407.794 128.972 440.241 70 473.14C53.3395 482.434 36.5865 491.574 20 501C14.6584 504.036 4.43325 507.281 1.02778 512.529C-0.500229 514.884 0.00119952 518.336 0 521L0 538L0 603C16.9826 595.928 32.8803 585.158 49 576.306C81.1007 558.676 113.017 540.703 145 522.86C246.265 466.368 347.362 409.513 449 353.694C487.784 332.395 526.358 310.697 565 289.14C576.655 282.638 588.302 276.119 600 269.694C604.343 267.309 609.982 262.595 615 262.093C619.031 261.689 623.628 265.454 627 267.306C636.713 272.64 646.352 278.124 656 283.576C691.206 303.468 726.811 322.65 762 342.576C873.86 405.914 986.738 467.512 1099 530.14C1129.3 547.043 1159.59 563.992 1190 580.694C1199.03 585.656 1207.94 590.845 1217 595.769C1221.16 598.034 1227.51 600.334 1230.4 604.213C1233.07 607.797 1232 613.796 1232 618L1232 650L1232 774C1171.31 742.034 1111.91 707.28 1052 673.86C962.066 623.689 871.388 574.716 782 523.579C741.627 500.482 700.77 478.085 660 455.694C649.635 450.002 639.296 444.242 629 438.424C625.233 436.296 619.505 431.642 615 432.093C611.284 432.465 607.191 435.622 604 437.424C597.022 441.367 590 445.235 583 449.14L511 489.14C426.375 536.35 341.368 582.907 257 630.576C194.571 665.848 131.282 699.62 69 735.15C52.7625 744.414 36.2747 753.229 20 762.424C14.6828 765.429 4.2043 768.828 1.02778 774.213C-2.15548 779.609 0 790.871 0 797L0 853C16.326 846.201 31.5088 835.813 47 827.306C79.4358 809.492 111.566 791.12 144 773.306C245.961 717.303 347.037 659.692 449 603.694C487.451 582.577 525.548 560.812 564 539.694C575.38 533.445 586.62 526.944 598 520.694C602.876 518.016 608.536 513.405 614 512.208C617.954 511.341 621.724 514.45 625 516.231C633.713 520.968 642.307 525.921 651 530.694C686.109 549.976 721.02 569.625 756 589.14C870.934 653.258 986.066 717.021 1101 781.14C1132.64 798.793 1164.5 816.097 1196 834C1204.28 838.707 1212.68 843.219 1221 847.86C1224.07 849.574 1229.02 851.328 1230.97 854.39C1233.16 857.827 1232 864.097 1232 868L1232 901L1232 1024L1234 1024L1234 0L618 0z"/>
<path style="fill:#000000; stroke:none;" d="M0 774C60.7095 742.057 120.099 707.296 180 673.86C267.259 625.153 354.73 576.825 442 528.14L566 459.14C577.655 452.638 589.302 446.119 601 439.694C605 437.498 610.902 432.481 615.576 432.348C619.707 432.231 625.501 437.012 629 439C639.272 444.838 649.62 450.586 660 456.231C701.201 478.635 742.229 501.542 783 524.719C880.816 580.326 979.739 634.043 1078 688.86C1112.98 708.375 1147.89 728.024 1183 747.306C1198.86 756.017 1215.01 767.814 1232 774L1232 651L1232 618C1232 613.953 1233.11 607.835 1230.97 604.213C1228.77 600.479 1222.67 598.319 1219 596.306C1209.63 591.161 1200.37 585.838 1191 580.694C1156.92 561.979 1122.76 543.291 1089 523.999C976.43 459.666 862.646 397.108 749 334.694C717.924 317.628 686.824 300.517 656 283C647.031 277.903 638.01 272.887 629 267.86C625.263 265.776 620.374 261.862 616 261.618C611.669 261.376 606.623 265.377 603 267.424C594.036 272.489 584.963 277.36 576 282.424C542.454 301.378 508.773 320.147 475 338.694C359.985 401.859 245.593 466.212 131 530.14C99.3568 547.792 67.5023 565.098 36 583C27.7164 587.707 19.3204 592.219 11 596.86C7.92876 598.574 2.9806 600.328 1.02778 603.39C-1.16357 606.827 0 613.097 0 617L0 650L0 774M0 1024C42.4922 1001.62 84.0579 977.259 126 953.86C233.258 894.024 340.347 833.816 448 774.694C488.795 752.291 529.114 729.003 570 706.769C580.376 701.127 590.717 695.386 601 689.576C604.929 687.355 610.957 682.354 615.576 682.287C619.824 682.225 625.395 686.848 629 688.86C639.343 694.634 649.594 700.572 660 706.231C700.882 728.462 741.361 751.468 782 774.14C878.262 827.841 974.751 881.135 1071 934.86L1177 993.86C1195.02 1003.92 1212.94 1016.06 1232 1024L1232 899L1232 867C1232 863.271 1233.21 856.854 1230.97 853.637C1228.43 849.993 1221.81 847.785 1218 845.694C1208.64 840.556 1199.32 835.34 1190 830.14L1084 771.14C972.403 708.883 861.008 646.208 749 584.694C716.896 567.063 685.177 548.729 653 531.231C644.288 526.493 635.712 521.507 627 516.769C623.705 514.977 619.848 511.871 616 511.607C611.813 511.321 607.502 514.865 604 516.769C594.271 522.06 584.615 527.504 575 532.999C541.226 552.301 506.819 570.494 473 589.719C359.582 654.195 244.919 716.551 131 780.14C100.377 797.233 69.8093 814.477 39 831.231C30.2771 835.974 21.7236 841.026 13 845.769C9.43093 847.71 3.27584 849.865 1.02778 853.39C-1.16356 856.827 0 863.097 0 867L0 900L0 1024z"/>
<path style="fill:#ffffff; stroke:none;" d="M1 1023C4.69866 1024.55 9.01719 1024 13 1024L33 1024L105 1024L357 1024L1231 1024C1218.79 1013.87 1201.82 1007.4 1188 999.576C1153.14 979.839 1117.97 960.662 1083 941.14C980.068 883.684 876.946 826.57 774 769.14L659 705.14C648.659 699.371 638.402 693.426 628 687.769C624.295 685.754 619.433 681.674 615 682.039C609.722 682.475 603.55 687.601 599 690.14C586.681 697.012 574.365 703.904 562 710.694C518.864 734.384 475.825 758.327 433 782.576C324.125 844.224 214.251 904.157 105 965.14C70.3878 984.46 35.1432 1002.86 1 1023z"/>
</svg>
