<?xml version="1.0" encoding="utf-8"?>
<!-- Generator: Adobe Illustrator 28.0.0, SVG Export Plug-In . SVG Version: 6.00 Build 0)  -->
<svg version="1.1" id="Layer_1" xmlns="http://www.w3.org/2000/svg" xmlns:xlink="http://www.w3.org/1999/xlink" x="0px" y="0px"
	 viewBox="0 0 1234 1024" style="enable-background:new 0 0 1234 1024;" xml:space="preserve">
<style type="text/css">
	.st0{fill:#FF0000;stroke:#000000;stroke-miterlimit:10;}
</style>
<g>
	<path class="st0" d="M89,261.5c6.6-2.5,12.8-7.1,18.9-10.6c12.8-7.4,25.6-14.9,38.5-22.2c39.9-22.7,79.6-45.9,119.4-68.9
		c15.8-9.2,31.6-18.4,47.5-27.4c4.1-2.3,8.1-4.6,12.2-7c1.5-0.9,3.7-2.8,5.5-2.6c1.8,0.1,4,1.9,5.5,2.8c3.7,2.2,7.3,4.3,11,6.4
		c13.9,7.9,27.7,16.1,41.6,24c42.3,24.1,84.4,48.6,126.5,72.9l38.1,22c3.8,2.2,7.6,4.3,11.4,6.6c2.5,1.5,5.1,3.4,7.9,4.1v-50.1V198
		c0-1.6,0.5-4.1-0.4-5.5c-0.9-1.5-3.3-2.3-4.7-3.1c-3.8-2.2-7.6-4.4-11.4-6.6c-13.9-7.9-27.7-16.1-41.6-24
		c-44.1-25.1-87.9-51-132-76.1c-12.5-7.1-24.8-14.5-37.3-21.5c-3.3-1.9-6.5-3.8-9.8-5.7c-1.4-0.8-3.1-2.2-4.7-2.2
		c-1.9-0.1-3.9,1.6-5.5,2.5c-3.5,2.1-7.1,4-10.6,6.1c-12.9,7.6-25.9,15-38.9,22.4c-45.3,25.8-90.2,52.4-135.5,78.2
		c-12.5,7.1-24.9,14.3-37.3,21.5c-3.3,1.9-6.6,3.7-9.8,5.6c-1.3,0.7-3.2,1.4-3.9,2.8c-0.8,1.5-0.4,4-0.4,5.6v13.4V261.5z"/>
	<path class="st0" d="M89,381.5c6.6-2.5,12.8-7.1,18.9-10.6c12.8-7.4,25.6-14.9,38.5-22.2c39.9-22.7,79.6-45.9,119.4-68.9
		c15.8-9.2,31.6-18.4,47.5-27.4c4.1-2.3,8.1-4.6,12.2-7c1.5-0.9,3.7-2.8,5.5-2.6c1.8,0.1,4,1.9,5.5,2.8c3.7,2.2,7.3,4.3,11,6.4
		c13.9,7.9,27.7,16.1,41.6,24c42.3,24.1,84.4,48.6,126.5,72.9l38.1,22c3.8,2.2,7.6,4.3,11.4,6.6c2.5,1.5,5.1,3.4,7.9,4.1v-50.1V318
		c0-1.6,0.5-4.1-0.4-5.5c-0.9-1.5-3.3-2.3-4.7-3.1c-3.8-2.2-7.6-4.4-11.4-6.6c-13.9-7.9-27.7-16.1-41.6-24
		c-44.1-25.1-87.9-51-132-76.1c-12.5-7.1-24.8-14.5-37.3-21.5c-3.3-1.9-6.5-3.8-9.8-5.7c-1.4-0.8-3.1-2.2-4.7-2.2
		c-1.9-0.1-3.9,1.6-5.5,2.5c-3.5,2.1-7.1,4-10.6,6.1c-12.9,7.6-25.9,15-38.9,22.4c-45.3,25.8-90.2,52.4-135.5,78.2
		c-12.5,7.1-24.9,14.3-37.3,21.5c-3.3,1.9-6.6,3.7-9.8,5.6c-1.3,0.7-3.2,1.4-3.9,2.8c-0.8,1.5-0.4,4-0.4,5.6v13.4V381.5z"/>
	<path class="st0" d="M89,495.9c6.6-2.5,12.8-7.1,18.9-10.6c12.8-7.4,25.6-14.9,38.5-22.2c39.9-22.7,79.6-45.9,119.4-68.9
		c15.8-9.2,31.6-18.4,47.5-27.4c4.1-2.3,8.1-4.6,12.2-7c1.5-0.9,3.7-2.8,5.5-2.6c1.8,0.1,4,1.9,5.5,2.8c3.7,2.2,7.3,4.3,11,6.4
		c13.9,7.9,27.7,16.1,41.6,24c42.3,24.1,84.4,48.6,126.5,72.9l38.1,22c3.8,2.2,7.6,4.3,11.4,6.6c2.5,1.5,5.1,3.4,7.9,4.1v-50.1
		v-13.4c0-1.6,0.5-4.1-0.4-5.5c-0.9-1.5-3.3-2.3-4.7-3.1c-3.8-2.2-7.6-4.4-11.4-6.6c-13.9-7.9-27.7-16.1-41.6-24
		c-44.1-25.1-87.9-51-132-76.1c-12.5-7.1-24.8-14.5-37.3-21.5c-3.3-1.9-6.5-3.8-9.8-5.7c-1.4-0.8-3.1-2.2-4.7-2.2
		c-1.9-0.1-3.9,1.6-5.5,2.5c-3.5,2.1-7.1,4-10.6,6.1c-12.9,7.6-25.9,15-38.9,22.4c-45.3,25.8-90.2,52.4-135.5,78.2
		c-12.5,7.1-24.9,14.3-37.3,21.5c-3.3,1.9-6.6,3.7-9.8,5.6c-1.3,0.7-3.2,1.4-3.9,2.8c-0.8,1.5-0.4,4-0.4,5.6v13.4V495.9z"/>
</g>
</svg>
